<mxfile host="app.diagrams.net" agent="Mozilla/5.0 (Windows NT 10.0; Win64; x64) AppleWebKit/537.36 (KHTML, like Gecko) Chrome/130.0.0.0 Safari/537.36 Edg/130.0.0.0" version="24.8.4">
  <diagram name="Page-1" id="_1MWCBeagtgbKKwirDyr">
    <mxGraphModel dx="1424" dy="1261" grid="1" gridSize="10" guides="1" tooltips="1" connect="1" arrows="1" fold="1" page="1" pageScale="1" pageWidth="827" pageHeight="1169" math="0" shadow="0">
      <root>
        <mxCell id="0" />
        <mxCell id="1" parent="0" />
        <mxCell id="xZTG9cuoFfoog_Mrd_5Y-6" style="edgeStyle=orthogonalEdgeStyle;rounded=0;orthogonalLoop=1;jettySize=auto;html=1;entryX=0.5;entryY=0;entryDx=0;entryDy=0;" edge="1" parent="1" source="xZTG9cuoFfoog_Mrd_5Y-1" target="xZTG9cuoFfoog_Mrd_5Y-4">
          <mxGeometry relative="1" as="geometry" />
        </mxCell>
        <mxCell id="xZTG9cuoFfoog_Mrd_5Y-12" style="edgeStyle=orthogonalEdgeStyle;rounded=0;orthogonalLoop=1;jettySize=auto;html=1;entryX=0;entryY=0.5;entryDx=0;entryDy=0;" edge="1" parent="1" source="xZTG9cuoFfoog_Mrd_5Y-1" target="xZTG9cuoFfoog_Mrd_5Y-2">
          <mxGeometry relative="1" as="geometry" />
        </mxCell>
        <mxCell id="xZTG9cuoFfoog_Mrd_5Y-1" value="Dev/Test" style="rounded=0;whiteSpace=wrap;html=1;" vertex="1" parent="1">
          <mxGeometry width="280" height="120" as="geometry" />
        </mxCell>
        <mxCell id="xZTG9cuoFfoog_Mrd_5Y-10" style="edgeStyle=orthogonalEdgeStyle;rounded=0;orthogonalLoop=1;jettySize=auto;html=1;" edge="1" parent="1" source="xZTG9cuoFfoog_Mrd_5Y-2" target="xZTG9cuoFfoog_Mrd_5Y-8">
          <mxGeometry relative="1" as="geometry" />
        </mxCell>
        <mxCell id="xZTG9cuoFfoog_Mrd_5Y-13" style="edgeStyle=orthogonalEdgeStyle;rounded=0;orthogonalLoop=1;jettySize=auto;html=1;entryX=0;entryY=0.5;entryDx=0;entryDy=0;" edge="1" parent="1" source="xZTG9cuoFfoog_Mrd_5Y-2" target="xZTG9cuoFfoog_Mrd_5Y-3">
          <mxGeometry relative="1" as="geometry" />
        </mxCell>
        <mxCell id="xZTG9cuoFfoog_Mrd_5Y-2" value="Acceptatie" style="rounded=0;whiteSpace=wrap;html=1;" vertex="1" parent="1">
          <mxGeometry x="320" width="280" height="120" as="geometry" />
        </mxCell>
        <mxCell id="xZTG9cuoFfoog_Mrd_5Y-16" style="edgeStyle=orthogonalEdgeStyle;rounded=0;orthogonalLoop=1;jettySize=auto;html=1;entryX=0.5;entryY=0;entryDx=0;entryDy=0;" edge="1" parent="1" source="xZTG9cuoFfoog_Mrd_5Y-3" target="xZTG9cuoFfoog_Mrd_5Y-14">
          <mxGeometry relative="1" as="geometry" />
        </mxCell>
        <mxCell id="xZTG9cuoFfoog_Mrd_5Y-3" value="Productie" style="rounded=0;whiteSpace=wrap;html=1;" vertex="1" parent="1">
          <mxGeometry x="640" width="280" height="120" as="geometry" />
        </mxCell>
        <mxCell id="xZTG9cuoFfoog_Mrd_5Y-7" style="edgeStyle=orthogonalEdgeStyle;rounded=0;orthogonalLoop=1;jettySize=auto;html=1;entryX=0.5;entryY=0;entryDx=0;entryDy=0;" edge="1" parent="1" source="xZTG9cuoFfoog_Mrd_5Y-4" target="xZTG9cuoFfoog_Mrd_5Y-5">
          <mxGeometry relative="1" as="geometry" />
        </mxCell>
        <mxCell id="xZTG9cuoFfoog_Mrd_5Y-4" value="Azure Devops;&lt;div&gt;Branches Dev en Test&lt;/div&gt;&lt;div&gt;Variabelen Groepen Dev en Test&lt;/div&gt;&lt;div&gt;Enviroments Dev en Test&lt;/div&gt;&lt;div&gt;Pipelines Dev en TEst&lt;/div&gt;" style="rounded=0;whiteSpace=wrap;html=1;" vertex="1" parent="1">
          <mxGeometry y="160" width="280" height="120" as="geometry" />
        </mxCell>
        <mxCell id="xZTG9cuoFfoog_Mrd_5Y-5" value="Azure B2C Test Tenant" style="rounded=0;whiteSpace=wrap;html=1;" vertex="1" parent="1">
          <mxGeometry y="320" width="280" height="110" as="geometry" />
        </mxCell>
        <mxCell id="xZTG9cuoFfoog_Mrd_5Y-11" style="edgeStyle=orthogonalEdgeStyle;rounded=0;orthogonalLoop=1;jettySize=auto;html=1;entryX=0.5;entryY=0;entryDx=0;entryDy=0;" edge="1" parent="1" source="xZTG9cuoFfoog_Mrd_5Y-8" target="xZTG9cuoFfoog_Mrd_5Y-9">
          <mxGeometry relative="1" as="geometry" />
        </mxCell>
        <mxCell id="xZTG9cuoFfoog_Mrd_5Y-8" value="Azure Devops;&lt;div&gt;Branches Acc&lt;/div&gt;&lt;div&gt;Variabelen Groep Acc&lt;/div&gt;&lt;div&gt;Enviroments Acc&lt;/div&gt;&lt;div&gt;Pipelines Acc&lt;/div&gt;" style="rounded=0;whiteSpace=wrap;html=1;" vertex="1" parent="1">
          <mxGeometry x="320" y="160" width="280" height="120" as="geometry" />
        </mxCell>
        <mxCell id="xZTG9cuoFfoog_Mrd_5Y-9" value="Azure B2C Acceptatie Tenant" style="rounded=0;whiteSpace=wrap;html=1;" vertex="1" parent="1">
          <mxGeometry x="320" y="320" width="280" height="110" as="geometry" />
        </mxCell>
        <mxCell id="xZTG9cuoFfoog_Mrd_5Y-17" style="edgeStyle=orthogonalEdgeStyle;rounded=0;orthogonalLoop=1;jettySize=auto;html=1;entryX=0.5;entryY=0;entryDx=0;entryDy=0;" edge="1" parent="1" source="xZTG9cuoFfoog_Mrd_5Y-14" target="xZTG9cuoFfoog_Mrd_5Y-15">
          <mxGeometry relative="1" as="geometry" />
        </mxCell>
        <mxCell id="xZTG9cuoFfoog_Mrd_5Y-14" value="Azure Devops;&lt;div&gt;Branches Prod&lt;/div&gt;&lt;div&gt;Variabelen Groep&amp;nbsp;&lt;span style=&quot;background-color: initial;&quot;&gt;Prod&lt;/span&gt;&lt;/div&gt;&lt;div&gt;Enviroments&amp;nbsp;&lt;span style=&quot;background-color: initial;&quot;&gt;Prod&lt;/span&gt;&lt;/div&gt;&lt;div&gt;Pipelines&amp;nbsp;&lt;span style=&quot;background-color: initial;&quot;&gt;Prod&lt;/span&gt;&lt;/div&gt;" style="rounded=0;whiteSpace=wrap;html=1;" vertex="1" parent="1">
          <mxGeometry x="640" y="160" width="280" height="120" as="geometry" />
        </mxCell>
        <mxCell id="xZTG9cuoFfoog_Mrd_5Y-15" value="Azure B2C Productie Tenant" style="rounded=0;whiteSpace=wrap;html=1;" vertex="1" parent="1">
          <mxGeometry x="640" y="320" width="280" height="110" as="geometry" />
        </mxCell>
        <mxCell id="xZTG9cuoFfoog_Mrd_5Y-18" value="&lt;div style=&quot;color: #abb2bf;background-color: #23272e;font-family: Consolas, &#39;Courier New&#39;, monospace;font-weight: normal;font-size: 14px;line-height: 19px;white-space: pre;&quot;&gt;&lt;div&gt;&lt;span style=&quot;color: #abb2bf;&quot;&gt;Azure DevOps Branches and Environments&lt;/span&gt;&lt;/div&gt;&lt;div&gt;&lt;span style=&quot;color: #e06c75;&quot;&gt;======================================&lt;/span&gt;&lt;/div&gt;&lt;br&gt;&lt;div&gt;&lt;span style=&quot;color: #abb2bf;&quot;&gt;Azure DevOps&lt;/span&gt;&lt;/div&gt;&lt;div&gt;&lt;span style=&quot;color: #e06c75;&quot;&gt;------------&lt;/span&gt;&lt;/div&gt;&lt;div&gt;&lt;span style=&quot;color: #abb2bf;&quot;&gt;Branches (incl. variable groups per, and environments per):&lt;/span&gt;&lt;/div&gt;&lt;div&gt;&lt;span style=&quot;color: #abb2bf;&quot;&gt;&amp;nbsp; dev&lt;/span&gt;&lt;/div&gt;&lt;div&gt;&lt;span style=&quot;color: #abb2bf;&quot;&gt;&amp;nbsp; test&lt;/span&gt;&lt;/div&gt;&lt;div&gt;&lt;span style=&quot;color: #abb2bf;&quot;&gt;&amp;nbsp; acc&lt;/span&gt;&lt;/div&gt;&lt;div&gt;&lt;span style=&quot;color: #abb2bf;&quot;&gt;&amp;nbsp; prod&lt;/span&gt;&lt;/div&gt;&lt;br&gt;&lt;div&gt;&lt;span style=&quot;color: #abb2bf;&quot;&gt;Flow:&lt;/span&gt;&lt;/div&gt;&lt;div&gt;&lt;span style=&quot;color: #e06c75;&quot;&gt;-----&lt;/span&gt;&lt;/div&gt;&lt;div&gt;&lt;span style=&quot;color: #abb2bf;&quot;&gt;dev, test -&amp;gt; Azure B2C Testing&lt;/span&gt;&lt;/div&gt;&lt;div&gt;&lt;span style=&quot;color: #abb2bf;&quot;&gt;acc &amp;nbsp; &amp;nbsp; &amp;nbsp; -&amp;gt; Azure B2C Acceptatie&lt;/span&gt;&lt;/div&gt;&lt;div&gt;&lt;span style=&quot;color: #abb2bf;&quot;&gt;prod &amp;nbsp; &amp;nbsp; &amp;nbsp;-&amp;gt; Azure B2C Production&lt;/span&gt;&lt;/div&gt;&lt;br&gt;&lt;/div&gt;" style="text;whiteSpace=wrap;html=1;" vertex="1" parent="1">
          <mxGeometry y="470" width="490" height="350" as="geometry" />
        </mxCell>
        <mxCell id="xZTG9cuoFfoog_Mrd_5Y-20" value="&lt;div style=&quot;color: #abb2bf;background-color: #23272e;font-family: Consolas, &#39;Courier New&#39;, monospace;font-weight: normal;font-size: 14px;line-height: 19px;white-space: pre;&quot;&gt;&lt;div&gt;&lt;span style=&quot;color: #abb2bf;&quot;&gt;Variabelen Groepen:&lt;/span&gt;&lt;/div&gt;&lt;div&gt;&lt;span style=&quot;color: #e06c75;&quot;&gt;-------------&lt;/span&gt;&lt;/div&gt;&lt;div&gt;&lt;span style=&quot;color: #abb2bf;&quot;&gt;(clientid, clientsecret, tenantid) van de App Registratie binnen de tenant voor Authenticatie. (Kan vanuit keyvault.)&lt;/span&gt;&lt;/div&gt;&lt;/div&gt;" style="text;whiteSpace=wrap;html=1;" vertex="1" parent="1">
          <mxGeometry x="480" y="470" width="560" height="80" as="geometry" />
        </mxCell>
        <mxCell id="xZTG9cuoFfoog_Mrd_5Y-21" value="&lt;div style=&quot;color: #abb2bf;background-color: #23272e;font-family: Consolas, &#39;Courier New&#39;, monospace;font-weight: normal;font-size: 14px;line-height: 19px;white-space: pre;&quot;&gt;&lt;div&gt;&lt;span style=&quot;color: #abb2bf;&quot;&gt;Diagram:&lt;/span&gt;&lt;/div&gt;&lt;div&gt;&lt;span style=&quot;color: #e06c75;&quot;&gt;--------&lt;/span&gt;&lt;/div&gt;&lt;div&gt;&lt;span style=&quot;color: #abb2bf;&quot;&gt;+-------------------+&lt;/span&gt;&lt;/div&gt;&lt;div&gt;&lt;span style=&quot;color: #abb2bf;&quot;&gt;| Azure DevOps &amp;nbsp; &amp;nbsp; &amp;nbsp;|&lt;/span&gt;&lt;/div&gt;&lt;div&gt;&lt;span style=&quot;color: #abb2bf;&quot;&gt;+-------------------+&lt;/span&gt;&lt;/div&gt;&lt;div&gt;&lt;span style=&quot;color: #abb2bf;&quot;&gt;&amp;nbsp; &amp;nbsp; &amp;nbsp; &amp;nbsp; |&lt;/span&gt;&lt;/div&gt;&lt;div&gt;&lt;span style=&quot;color: #abb2bf;&quot;&gt;&amp;nbsp; &amp;nbsp; &amp;nbsp; &amp;nbsp; v&lt;/span&gt;&lt;/div&gt;&lt;div&gt;&lt;span style=&quot;color: #abb2bf;&quot;&gt;+-------+-------+&lt;/span&gt;&lt;/div&gt;&lt;div&gt;&lt;span style=&quot;color: #abb2bf;&quot;&gt;| Branches &amp;nbsp; &amp;nbsp; &amp;nbsp;|&lt;/span&gt;&lt;/div&gt;&lt;div&gt;&lt;span style=&quot;color: #abb2bf;&quot;&gt;+-------+-------+&lt;/span&gt;&lt;/div&gt;&lt;div&gt;&lt;span style=&quot;color: #abb2bf;&quot;&gt;| dev &amp;nbsp; | test &amp;nbsp;|&lt;/span&gt;&lt;/div&gt;&lt;div&gt;&lt;span style=&quot;color: #abb2bf;&quot;&gt;| acc &amp;nbsp; | prod &amp;nbsp;|&lt;/span&gt;&lt;/div&gt;&lt;div&gt;&lt;span style=&quot;color: #abb2bf;&quot;&gt;+-------+-------+&lt;/span&gt;&lt;/div&gt;&lt;div&gt;&lt;span style=&quot;color: #abb2bf;&quot;&gt;&amp;nbsp; &amp;nbsp; &amp;nbsp; &amp;nbsp; |&lt;/span&gt;&lt;/div&gt;&lt;div&gt;&lt;span style=&quot;color: #abb2bf;&quot;&gt;&amp;nbsp; &amp;nbsp; &amp;nbsp; &amp;nbsp; v&lt;/span&gt;&lt;/div&gt;&lt;div&gt;&lt;span style=&quot;color: #abb2bf;&quot;&gt;+-------+-------+&lt;/span&gt;&lt;/div&gt;&lt;div&gt;&lt;span style=&quot;color: #abb2bf;&quot;&gt;| Variable &amp;nbsp; &amp;nbsp; &amp;nbsp;|&lt;/span&gt;&lt;/div&gt;&lt;div&gt;&lt;span style=&quot;color: #abb2bf;&quot;&gt;| Groups &amp;nbsp; &amp;nbsp; &amp;nbsp; &amp;nbsp;|&lt;/span&gt;&lt;/div&gt;&lt;div&gt;&lt;span style=&quot;color: #abb2bf;&quot;&gt;+-------+-------+&lt;/span&gt;&lt;/div&gt;&lt;div&gt;&lt;span style=&quot;color: #abb2bf;&quot;&gt;| dev &amp;nbsp; | test &amp;nbsp;|&lt;/span&gt;&lt;/div&gt;&lt;div&gt;&lt;span style=&quot;color: #abb2bf;&quot;&gt;| acc &amp;nbsp; | prod &amp;nbsp;|&lt;/span&gt;&lt;/div&gt;&lt;div&gt;&lt;span style=&quot;color: #abb2bf;&quot;&gt;+-------+-------+&lt;/span&gt;&lt;/div&gt;&lt;div&gt;&lt;span style=&quot;color: #abb2bf;&quot;&gt;&amp;nbsp; &amp;nbsp; &amp;nbsp; &amp;nbsp; |&lt;/span&gt;&lt;/div&gt;&lt;div&gt;&lt;span style=&quot;color: #abb2bf;&quot;&gt;&amp;nbsp; &amp;nbsp; &amp;nbsp; &amp;nbsp; v&lt;/span&gt;&lt;/div&gt;&lt;div&gt;&lt;span style=&quot;color: #abb2bf;&quot;&gt;+-------+-------+&lt;/span&gt;&lt;/div&gt;&lt;div&gt;&lt;span style=&quot;color: #abb2bf;&quot;&gt;| Environments &amp;nbsp;|&lt;/span&gt;&lt;/div&gt;&lt;div&gt;&lt;span style=&quot;color: #abb2bf;&quot;&gt;+-------+-------+&lt;/span&gt;&lt;/div&gt;&lt;div&gt;&lt;span style=&quot;color: #abb2bf;&quot;&gt;| dev &amp;nbsp; | test &amp;nbsp;|&lt;/span&gt;&lt;/div&gt;&lt;div&gt;&lt;span style=&quot;color: #abb2bf;&quot;&gt;| acc &amp;nbsp; | prod &amp;nbsp;|&lt;/span&gt;&lt;/div&gt;&lt;div&gt;&lt;span style=&quot;color: #abb2bf;&quot;&gt;+-------+-------+&lt;/span&gt;&lt;/div&gt;&lt;div&gt;&lt;span style=&quot;color: #abb2bf;&quot;&gt;&amp;nbsp; &amp;nbsp; &amp;nbsp; &amp;nbsp; |&lt;/span&gt;&lt;/div&gt;&lt;div&gt;&lt;span style=&quot;color: #abb2bf;&quot;&gt;&amp;nbsp; &amp;nbsp; &amp;nbsp; &amp;nbsp; v&lt;/span&gt;&lt;/div&gt;&lt;div&gt;&lt;span style=&quot;color: #abb2bf;&quot;&gt;+-------+-------+&lt;/span&gt;&lt;/div&gt;&lt;div&gt;&lt;span style=&quot;color: #abb2bf;&quot;&gt;| Flow &amp;nbsp; &amp;nbsp; &amp;nbsp; &amp;nbsp; &amp;nbsp;|&lt;/span&gt;&lt;/div&gt;&lt;div&gt;&lt;span style=&quot;color: #abb2bf;&quot;&gt;+-------+-------+&lt;/span&gt;&lt;/div&gt;&lt;div&gt;&lt;span style=&quot;color: #abb2bf;&quot;&gt;| dev, &amp;nbsp;| Azure |&lt;/span&gt;&lt;/div&gt;&lt;div&gt;&lt;span style=&quot;color: #abb2bf;&quot;&gt;| test &amp;nbsp;| B2C &amp;nbsp; |&lt;/span&gt;&lt;/div&gt;&lt;div&gt;&lt;span style=&quot;color: #abb2bf;&quot;&gt;| &amp;nbsp; &amp;nbsp; &amp;nbsp; | Testing|&lt;/span&gt;&lt;/div&gt;&lt;div&gt;&lt;span style=&quot;color: #abb2bf;&quot;&gt;+-------+-------+&lt;/span&gt;&lt;/div&gt;&lt;div&gt;&lt;span style=&quot;color: #abb2bf;&quot;&gt;| acc &amp;nbsp; | Azure |&lt;/span&gt;&lt;/div&gt;&lt;div&gt;&lt;span style=&quot;color: #abb2bf;&quot;&gt;| &amp;nbsp; &amp;nbsp; &amp;nbsp; | B2C &amp;nbsp; |&lt;/span&gt;&lt;/div&gt;&lt;div&gt;&lt;span style=&quot;color: #abb2bf;&quot;&gt;| &amp;nbsp; &amp;nbsp; &amp;nbsp; | Acceptatie|&lt;/span&gt;&lt;/div&gt;&lt;div&gt;&lt;span style=&quot;color: #abb2bf;&quot;&gt;+-------+-------+&lt;/span&gt;&lt;/div&gt;&lt;div&gt;&lt;span style=&quot;color: #abb2bf;&quot;&gt;| prod &amp;nbsp;| Azure |&lt;/span&gt;&lt;/div&gt;&lt;div&gt;&lt;span style=&quot;color: #abb2bf;&quot;&gt;| &amp;nbsp; &amp;nbsp; &amp;nbsp; | B2C &amp;nbsp; |&lt;/span&gt;&lt;/div&gt;&lt;div&gt;&lt;span style=&quot;color: #abb2bf;&quot;&gt;| &amp;nbsp; &amp;nbsp; &amp;nbsp; | Production|&lt;/span&gt;&lt;/div&gt;&lt;div&gt;&lt;span style=&quot;color: #abb2bf;&quot;&gt;+-------+-------+&lt;/span&gt;&lt;/div&gt;&lt;div&gt;&lt;span style=&quot;color: #abb2bf;&quot;&gt;&amp;nbsp; &amp;nbsp; &amp;nbsp; &amp;nbsp; |&lt;/span&gt;&lt;/div&gt;&lt;div&gt;&lt;span style=&quot;color: #abb2bf;&quot;&gt;&amp;nbsp; &amp;nbsp; &amp;nbsp; &amp;nbsp; v&lt;/span&gt;&lt;/div&gt;&lt;div&gt;&lt;span style=&quot;color: #abb2bf;&quot;&gt;+-------+-------+&lt;/span&gt;&lt;/div&gt;&lt;div&gt;&lt;span style=&quot;color: #abb2bf;&quot;&gt;| Authentication|&lt;/span&gt;&lt;/div&gt;&lt;div&gt;&lt;span style=&quot;color: #abb2bf;&quot;&gt;+-------+-------+&lt;/span&gt;&lt;/div&gt;&lt;div&gt;&lt;span style=&quot;color: #abb2bf;&quot;&gt;| clientid &amp;nbsp; &amp;nbsp; &amp;nbsp;|&lt;/span&gt;&lt;/div&gt;&lt;div&gt;&lt;span style=&quot;color: #abb2bf;&quot;&gt;| clientsecret &amp;nbsp;|&lt;/span&gt;&lt;/div&gt;&lt;div&gt;&lt;span style=&quot;color: #abb2bf;&quot;&gt;| tenantid &amp;nbsp; &amp;nbsp; &amp;nbsp;|&lt;/span&gt;&lt;/div&gt;&lt;/div&gt;" style="text;whiteSpace=wrap;html=1;" vertex="1" parent="1">
          <mxGeometry x="480" y="540" width="200" height="1070" as="geometry" />
        </mxCell>
      </root>
    </mxGraphModel>
  </diagram>
</mxfile>
